@startuml Restaurant Reservation Class Diagram
left to right direction
package "Restaurant Reservation" {
    class "<<Application>>\nReservationService" as ReservationService {}

    class "<<Resource>>\nReservations" as ResourceReservations {
        <<GET>> +getReservations(): Reservation
        <<POST>> +addReservation(): Reservation
    }

    class "<<Resource>>\nReservation" as ResourceReservation {
        <<GET>> +getReservation(): Reservation
        <<PUT>> +updateReservation(): Reservation
        <<DELETE>> +deleteReservation(): response
    }

    class "<<Resource>>\nRestaurants" as ResourceRestaurants {
        <<GET>> +getRestaurants(): Restaurant
    }

    class "<<Resource>>\nAuth" as ResourceAuth {
        <<POST>> +register(): User
        <<POST>> +login(): User
        <<GET>> +logout(): response
    }

    class "<<Representation>>\nReservation" as RepresentationReservation {
        -userId
        -restaurantId
        -reservationDate
    }

    class "<<Representation>>\nRestaurant" as RepresentationRestaurant {
        -name
        -address
        -district
        -province
        -postalcode
        -tel
        -openTime
        -closeTime
    }

    class "<<Representation>>\nUser" as RepresentationUser {
        -name
        -email
        -tel
        -password
    }
}

ReservationService ..> ResourceReservations : "/reservations\n<<Path>>"
ReservationService ..> ResourceRestaurants : "/restaurants\n<<Path>>"
ReservationService ..> ResourceAuth : "/auth\n<<Path>>"
ResourceReservations ..> ResourceReservation : "/{reservationId}\n<<Path>>"
ResourceReservation ..> RepresentationReservation : "<<use>>"
ResourceRestaurants ..> RepresentationRestaurant : "<<use>>"
ResourceAuth ..> RepresentationUser : "<<use>>"

@enduml
